<svg xmlns="http://www.w3.org/2000/svg" width="1065" height="1065"><path fill="#fefefe" d="m514.426-.203 4.043-.021c4.281-.02 8.562-.025 12.843-.026l2.21-.001C555.158-.258 576.529-.001 598 3l3.838.504C678.644 13.734 752.838 40.392 874 123l1.839 1.539c13.272 11.148 25.769 22.978 38.036 35.211l1.655 1.647c6.043 6.02 11.954 12.09 17.47 18.603q1.424 1.625 2.852 3.246c7.182 8.234 13.913 16.753 20.46 25.5q1.703 2.273 3.416 4.54C980.044 240.182 996.889 268.9 1012 299l1.41 2.792c32.32 64.373 51.538 140.478 51.793 212.634l.021 4.043c.02 4.281.025 8.562.026 12.843l.001 2.21c.007 21.636-.25 43.007-3.251 64.478l-.504 3.838c-10.23 76.806-36.888 151-119.496 272.162l-1.539 1.839c-11.148 13.272-22.978 25.769-35.211 38.036l-1.647 1.655c-6.02 6.043-12.09 11.954-18.603 17.47q-1.625 1.424-3.246 2.852c-8.234 7.182-16.753 13.913-25.5 20.46q-2.273 1.703-4.54 3.416C824.818 980.044 796.1 996.889 766 1012l-2.792 1.41c-64.373 32.32-140.478 51.538-212.634 51.793l-4.043.021c-4.281.02-8.562.025-12.843.026l-2.21.001c-21.636.007-43.007-.25-64.478-3.251l-3.838-.504c-76.806-10.23-151-36.888-272.162-119.496l-1.839-1.539c-13.272-11.148-25.769-22.978-38.036-35.211l-1.655-1.647c-6.043-6.02-11.954-12.09-17.47-18.603q-1.424-1.625-2.852-3.246c-7.182-8.234-13.913-16.753-20.46-25.5q-1.703-2.273-3.416-4.54C84.956 824.818 68.111 796.1 53 766l-1.41-2.792C19.27 698.835.052 622.73-.203 550.574l-.021-4.043c-.02-4.281-.025-8.562-.026-12.843l-.001-2.21C-.258 509.842-.001 488.471 3 467l.504-3.838C13.734 386.356 40.392 312.162 123 191l1.539-1.839c11.148-13.272 22.978-25.769 35.211-38.036l1.647-1.655c6.02-6.043 12.09-11.954 18.603-17.47q1.625-1.424 3.246-2.852c8.234-7.182 16.753-13.913 25.5-20.46q2.273-1.703 4.54-3.416C240.182 84.956 268.9 68.111 299 53l2.792-1.41C366.165 19.27 442.27.052 514.426-.203"/><path fill="#1c45be" d="M521 14h3a66 66 0 0 1 4.125 6.25l1.09 1.777c1.779 2.965 3.042 5.608 3.785 8.973a181 181 0 0 0 4 4c1.608 2.383 2.84 4.322 3.5 7.125.35 1.949.35 1.949 1.832 3.18 2.021 2.054 3.361 4.23 4.863 6.691l1.896 3.094 2.034 3.347 2.108 3.448a4683 4683 0 0 1 7.953 13.067c3.472 5.713 6.943 11.426 10.404 17.145l2.058 3.4 1.818 3.005A175 175 0 0 0 579 104c-.375 3.688-.375 3.688-1 7h-2l-.281 1.625c-1.274 4.208-3.848 7.767-6.125 11.5-1.647 2.67-1.647 2.67-2.125 5.063-.601 2.324-1.77 3.147-3.469 4.812-1.205 2.26-1.205 2.26-2.187 4.688l-1.043 2.449L560 143h-2l-.75 1.938c-1.937 4.745-3.957 9.476-6.25 14.062h-2l-.691 1.945c-2.131 4.974-4.913 9.588-7.588 14.285-2.541 4.507-4.767 8.98-6.721 13.77l-1 2h-2c-1.108 2.691-2.1 5.334-2.937 8.125-1.089 2.945-1.915 3.74-4.063 5.875a74 74 0 0 0-2.445 4.09l-1.325 2.377-1.355 2.47-1.379 2.46c-1.967 3.557-3.523 6.653-4.496 10.603a102 102 0 0 1-3 3c-2.746 3.94-4.346 8.23-6.035 12.695C503 245 503 245 501 248h-2l-.687 3.063c-1.034 3.668-2.78 6.168-5.075 9.167-1.923 2.748-3.016 5.653-4.238 8.77l-1 2h-2l-.691 1.945c-2.131 4.974-4.913 9.588-7.588 14.285-2.54 4.504-4.784 8.975-6.721 13.77h-2l-.937 3.375C467 308 467 308 466 310h-2l-.75 1.938c-3.26 7.987-7.029 15.534-11.25 23.062h-2l-.437 2.375C449 340 449 340 448 342h-2l-.312 2.25c-.753 3.008-1.824 4.313-3.688 6.75a896 896 0 0 0-2.05 5.012c-1.504 3.148-3.55 5.908-5.528 8.773-1.297 2.02-2.269 3.936-3.172 6.152C430 374 430 374 428 376l-1.25 3.5c-1.832 5.12-4.705 12.977-9.75 15.5-.992 2.106-.992 2.106-1.875 4.625-1.69 4.422-3.666 8.336-6.125 12.375h-2c-.095.714-.19 1.428-.29 2.164-.824 3.292-2.182 5.41-4.085 8.211-2.73 4.15-4.817 8.016-6.625 12.625-2.698 5.675-5.835 11.102-8.937 16.563l-1.72 3.031-3.556 6.26q-2.624 4.625-5.24 9.255l-3.235 5.704-1.529 2.71-1.42 2.497c-.41.722-.819 1.445-1.24 2.19C368 485 368 485 366 487a431 431 0 0 0-1.937 4.648c-2.378 5.263-5.286 10.292-8.063 15.352h-2l-.75 1.938c-2.506 6.139-5.224 12.16-8.25 18.062h-2l-.277 2.074c-.896 3.627-2.473 6.476-4.286 9.739l-.998 1.81A749 749 0 0 1 335 545h-2l-2 8 96-1c6.906-12.265 6.906-12.265 13.75-24.562 3.273-5.912 6.585-11.8 9.923-17.676a1265 1265 0 0 0 14.764-26.7c5.021-9.351 10.288-18.535 15.675-27.68 3.164-5.383 6.247-10.785 9.138-16.32 3.168-6.058 6.562-11.95 10.075-17.816 2.807-4.701 5.46-9.473 8.068-14.287 2.877-5.297 5.806-10.564 8.732-15.834l.986-1.777q7.11-12.803 14.404-25.5c3.84-6.692 7.605-13.422 11.36-20.16a1216 1216 0 0 1 14.188-24.75c5.256-8.94 10.268-17.986 15.17-27.123 4.992-9.288 10.195-18.446 15.476-27.572a627 627 0 0 0 3.525-6.216l1.891-3.34 1.57-2.8L597 250h2l.262-2.059c.929-3.701 2.648-6.734 4.55-10.004l1.196-2.087c5.2-9.028 10.58-17.949 15.992-26.85l1.478-2.447a1314 1314 0 0 1 4.147-6.803l1.254-2.078c.985-1.593 2.046-3.138 3.121-4.672h2l.813 2.813c.898 3.09.898 3.09 2.562 4.554 2.09 2.1 3.346 4.37 4.813 6.946l1.853 3.233L645 214l2.01 3.52q1.524 2.665 3.045 5.333a967 967 0 0 0 6.343 10.952l1.536 2.617q1.408 2.398 2.828 4.789l1.261 2.156c.36.61.72 1.22 1.092 1.847C664 247 664 247 664.436 249.04c.693 2.407 1.762 3.253 3.564 4.96 2.02 3.059 3.802 6.258 5.625 9.438l1.523 2.603 1.454 2.518 1.322 2.29c1.03 2.06 1.534 3.927 2.076 6.151l1.438 1.313c2.34 2.528 2.755 5.398 3.562 8.687h2c2 3 2 3 2 7h2c1.508 2.047 1.508 2.047 3.125 4.75l1.633 2.672C697 304 697 304 697 308h2q1.226 2.12 2.438 4.25l1.37 2.39c1.088 2.155 1.641 4.03 2.192 6.36l1.313 1.313c2.955 2.955 5.253 6.788 6.187 10.875.387 2.001.387 2.001 2.322 3.574 2.39 2.457 3.86 4.86 5.526 7.851l1.834 3.283 1.88 3.416 1.893 3.381c5.034 9.063 5.034 9.063 6.717 13.182 2.01 4.728 4.884 8.844 7.683 13.137C742 384 742 384 742 388h2q2.972 5.225 5.927 10.461 1.005 1.78 2.016 3.556 1.454 2.558 2.897 5.124l1.761 3.11c1.186 2.33 1.832 4.232 2.399 6.749a102 102 0 0 0 3 3c2.4 3.468 3 4.652 3 9h2l2 7h2l.813 2.813c.91 3.117.91 3.117 2.687 4.687 2.145 2.145 2.55 4.652 3.5 7.5l1.5 1.5c2.145 2.145 2.55 4.652 3.5 7.5a590 590 0 0 0 3 3 80 80 0 0 1 2.523 4.352l1.407 2.582 1.445 2.691 2.836 5.227 1.419 2.623c4.18 7.703 8.5 15.33 12.808 22.962l1.658 2.948c2.583 4.577 5.195 9.13 7.916 13.627 3.251 5.383 6.31 10.866 9.363 16.363A2667 2667 0 0 0 843 564a3069 3069 0 0 1 16.99 30.054 2307 2307 0 0 0 12.54 22.13c3.705 6.466 7.373 12.95 11.033 19.441a2228 2228 0 0 0 12.125 21.25l1.335 2.311a712 712 0 0 0 6.883 11.63l1.416 2.354q1.329 2.209 2.683 4.402C910.11 681.075 911 682.814 911 687h2a123 123 0 0 1 4.625 7.25l1.273 2.066 1.204 2.012 1.104 1.84C922 702 922 702 922 706h2c1.508 2.047 1.508 2.047 3.125 4.75l1.633 2.672C930 716 930 716 930 720h2l1.294 2.269 7.114 12.464c3.663 6.421 7.329 12.84 11.069 19.216l1.533 2.62q1.395 2.375 2.802 4.743l1.247 2.125 1.072 1.81C959 767 959 767 959.434 769.034c.692 2.402 1.76 3.276 3.566 4.965 1.669 2.497 3.097 5.13 4.563 7.75l1.208 2.094c2.433 4.32 4.062 8.335 5.229 13.156h2c2.432 3.367 3 4.734 3 9a90914 90914 0 0 1-114.582.167c-12.734.013-25.468.037-38.201.064q-19.59.042-39.18.051-12.093.005-24.187.042-9.264.024-18.527.015-3.808.001-7.616.019c-3.454.014-6.908.011-10.362.003l-3.074.026-2.794-.018-2.418.004c-2.58-.467-3.443-1.352-5.059-3.373-.809-1.797-.809-1.797-1.437-3.75-1.01-2.912-2.176-5.475-3.75-8.125C706 788 706 788 706 786h-2l-1.54-3.148c-3.442-6.994-6.925-13.866-11.03-20.5-3.227-5.307-6.094-10.83-9-16.317-2.524-4.724-5.067-8.86-8.43-13.035-.706-1.67-1.41-3.34-2.074-5.027-1.53-3.261-3.644-6.121-5.719-9.055C665 717 665 717 665 715h164c-3.3-7.649-3.3-7.649-7.754-14.102-1.46-2.225-2.406-4.576-3.423-7.03-1.34-3.043-3.025-5.871-4.698-8.743l-2.117-3.664-1.034-1.782A778 778 0 0 1 806 672.75l-1.187-2.078C804 669 804 669 804 667l-3-1c-1.5-2.258-1.5-2.258-3-5.125l-1.582-3.016c-1.105-2.227-2.147-4.442-3.106-6.734-1.233-3.145-1.233-3.145-3-5.937C789 643 789 643 789 641h-2c-2.605-3.737-4.222-7.825-6-12l-2-3v-3h-2l-1.687-3.008a2499 2499 0 0 0-11.5-20.304c-9.246-16.166-9.246-16.166-10.79-20.31-.835-2.367-.835-2.367-2.379-3.68-2.133-2.203-3.454-4.592-4.972-7.257l-1.926-3.36-1.996-3.519-3.89-6.808-1.933-3.387a1933 1933 0 0 0-5.77-10.015l-1.678-2.893c-1.163-1.933-2.428-3.804-3.729-5.646-1.95-3.135-2.886-6.12-3.957-9.63-1.133-3.119-2.883-5.483-4.793-8.183v-2l-3-1c-1.578-2.52-1.578-2.52-3.25-5.812-2.972-5.741-6.127-11.286-9.465-16.825C699 487 699 487 699 485h-2l-1.363-2.832c-6.176-12.67-13.244-24.75-20.422-36.871l-1.352-2.287q-1.252-2.118-2.515-4.229a154 154 0 0 1-6.414-11.976c-.947-1.83-2.014-3.486-3.184-5.18C660 419 660 419 660 417h-2l-1.54-3.148c-3.489-7.088-6.989-14.063-11.233-20.739C644 391 644 391 643.125 388.68c-1.504-3.583-3.595-6.646-5.75-9.868C633 372.27 633 372.27 633 370c-2.147 2.005-3.64 3.874-5.008 6.469l-1.05 1.98-1.067 2.051-1.09 2.05c-1.467 2.788-2.787 5.457-3.785 8.45h-2l-.802 2.63c-1.188 3.341-2.623 6.21-4.358 9.3l-1.894 3.388-2.009 3.557-2.04 3.643a3875 3875 0 0 1-8.854 15.709l-1.263 2.234q-1.122 1.981-2.253 3.956c-1.43 2.517-2.608 4.826-3.527 7.583h-3l-.316 2.649c-.719 3.52-1.832 5.87-3.625 8.968l-1.768 3.086-1.854 3.172-1.865 3.242Q577.298 468.066 575 472h-2l-.312 2a70 70 0 0 1-2.063 7.25c-.235.686-.47 1.372-.71 2.078C569 485 569 485 566 486c-1.206 2.024-1.206 2.024-2.125 4.438l-1.008 2.433L562 495l-1 2h-2l-.937 3.375C557 504 557 504 556 506h-2l-.25 2.535c-.889 4.107-2.641 7.326-4.75 10.902l-1.208 2.1a630 630 0 0 1-9.608 16.062c-2.12 3.465-4.012 6.993-5.818 10.632l-1.348 2.711L530 553l1.826-.025q22.009-.3 44.019-.441c7.096-.047 14.192-.11 21.287-.213 6.847-.1 13.694-.152 20.541-.175q3.92-.025 7.84-.098c3.659-.065 7.314-.074 10.974-.07l3.278-.098c7.199.09 7.199.09 10.214 3.088 1.544 2.286 2.813 4.555 4.021 7.032l1.804 2.964 1.5 2.618 1.745 3.034 1.826 3.197 1.939 3.376a6356 6356 0 0 1 9.453 16.54l2.178 3.818q2.597 4.554 5.187 9.112c3.034 5.327 6.066 10.595 9.534 15.653C690 624 690 624 690 628h2c1.656 2.484 1.656 2.484 3.5 5.75l1.844 3.234L699 640l1.219 2.203C701 644 701 644 701 647H478l-2 5a175 175 0 0 1-2 4h-2l-.437 2.375C471 661 471 661 470 663h-2l-.312 2.125c-.782 3.266-2.109 5.922-3.688 8.875h-2l-.75 2.563c-1.134 3.12-2.535 5.78-4.23 8.625-1.597 2.838-2.79 5.799-4.02 8.812h-2l-.59 2.719c-1.72 5.998-4.988 11.34-7.973 16.781l-1.908 3.512c-3.984 7.292-8.084 14.487-12.466 21.547-5.356 8.766-9.967 17.997-14.784 27.067-6.302 11.86-12.637 23.7-19.279 35.374l-1.013 2.675C391 806 391 806 389.1 806.448c-2.614.172-5.185.17-7.805.12l-3.016.002c-3.296-.004-6.59-.043-9.885-.082q-3.425-.014-6.848-.021a2997 2997 0 0 1-18.036-.124c-6.133-.05-12.266-.074-18.4-.099A8443 8443 0 0 1 289 806l1-5h2l.313-2.687c.704-3.396 1.642-5.532 3.687-8.313h2l.348-2.207c.67-2.867 1.633-4.934 3.09-7.48l1.308-2.325C304 776 304 776 306 774a267 267 0 0 0 2.134-4.988c1.551-3.603 3.407-7.047 5.241-10.512l1.312-2.484c4.469-8.404 9.16-16.678 13.868-24.95 4.215-7.405 8.365-14.847 12.512-22.291a941 941 0 0 1 10.366-18.077c1.99-3.425 3.884-6.896 5.766-10.382q2.207-4.06 4.446-8.101l1.452-2.627q1.425-2.58 2.857-5.156l1.362-2.467 1.202-2.168c2.24-4.226 4.355-8.513 6.482-12.797q-18.306.16-36.613.34-8.5.083-17 .157-8.198.072-16.397.156-3.132.031-6.264.056-4.38.037-8.757.086l-2.63.017c-3.354.041-6.136.12-9.339 1.188-1.102 2.27-1.102 2.27-2 5q-1.266 2.85-2.562 5.688l-1.317 2.886A160 160 0 0 1 270 667h-2l-.375 2.25c-.58 2.551-1.362 4.477-2.625 6.75h-2l-.375 2.25c-.58 2.551-1.362 4.477-2.625 6.75h-2l-.75 2.563c-1.134 3.12-2.535 5.78-4.23 8.625-1.597 2.838-2.79 5.799-4.02 8.812h-2l-.848 2.152a258 258 0 0 1-3.59 8.41c-.41.93-.822 1.86-1.246 2.817C240 721 240 721 238.527 722.902c-1.65 2.268-2.629 4.598-3.688 7.184-1.5 3.423-3.409 6.619-5.276 9.851-2.702 4.697-5.27 9.389-7.555 14.303-1.106 1.93-2.42 3.217-4.008 4.76-1.134 2.23-1.134 2.23-2.062 4.625-1.72 4.266-1.72 4.266-3.938 5.375-1.023 1.641-1.023 1.641-1.937 3.625l-1.055 2.188c-1.399 3.035-2.698 6.112-4.008 9.187-2.137 4.459-4.521 8.726-7 13h-2l-3 9H89c1.041-5.207 1.041-5.207 4-8 .976-2.052.976-2.052 1.758-4.375 2.487-6.51 5.78-12.517 9.117-18.625l1.816-3.367c2.74-5.052 5.528-10.052 8.516-14.961 2.456-4.041 4.581-8.152 6.606-12.422a129 129 0 0 1 8.937-15.625c3.047-4.564 5.427-8.987 7.277-14.16 1.86-4.714 4.466-9.07 6.973-13.465h2l1-3.625c1.658-4.997 4.162-9.37 6.821-13.879a172 172 0 0 0 6.492-12.183c2.824-5.759 5.938-11.284 9.187-16.813a292 292 0 0 0 10.715-19.95c2.418-4.809 5.045-9.49 7.676-14.184 3.552-6.342 7.03-12.721 10.484-19.116q6.979-12.914 14.021-25.793a2221 2221 0 0 0 8.256-15.262l1.878-3.5q1.791-3.345 3.575-6.69a357 357 0 0 1 9.63-16.887c1.433-2.4 2.693-4.843 3.89-7.368 6.824-13.877 14.539-27.316 22.188-40.75 3.998-7.027 7.801-14.07 11.347-21.336 7.147-14.44 15.352-28.402 23.19-42.473 4.754-8.545 9.429-17.13 14.072-25.736a1879 1879 0 0 1 12.41-22.56A1398 1398 0 0 0 331 358h2l.331-2.165c.73-3.092 1.855-5.413 3.372-8.202l1.702-3.147 1.845-3.361 1.906-3.505c4.581-8.41 9.278-16.752 14.017-25.073 3.866-6.801 7.62-13.658 11.327-20.547 4.763-8.85 9.652-17.617 14.623-26.351 3.903-6.877 7.694-13.81 11.44-20.774 4-7.438 8.085-14.813 12.312-22.125 5.032-8.711 9.802-17.552 14.524-26.434 4.28-8.043 8.648-16.027 13.164-23.941 6.453-11.316 12.614-22.78 18.766-34.262 7.291-13.582 14.753-27.064 22.31-40.5 4.902-8.74 9.662-17.55 14.396-26.38a1318 1318 0 0 1 10.977-20.08c2.728-4.88 5.432-9.77 8.125-14.669l2.21-4.016q1.658-3.015 3.312-6.03 1.545-2.815 3.095-5.63l1.822-3.318C520 15 520 15 521 14"/><path fill="#1b90fc" d="M631 193h2l.813 2.813c.898 3.09.898 3.09 2.562 4.554 2.09 2.1 3.346 4.37 4.813 6.946l1.853 3.233L645 214l2.01 3.52q1.524 2.665 3.045 5.333a967 967 0 0 0 6.343 10.952l1.536 2.617q1.408 2.398 2.828 4.789l1.261 2.156 1.092 1.847C664 247 664 247 664.436 249.04c.693 2.407 1.762 3.253 3.564 4.96 2.02 3.059 3.802 6.258 5.625 9.438l1.523 2.603 1.454 2.518 1.322 2.29c1.03 2.06 1.534 3.927 2.076 6.151l1.438 1.313c2.34 2.528 2.755 5.398 3.562 8.687h2c2 3 2 3 2 7h2c1.508 2.047 1.508 2.047 3.125 4.75l1.633 2.672C697 304 697 304 697 308h2q1.226 2.12 2.438 4.25l1.37 2.39c1.088 2.155 1.641 4.03 2.192 6.36l1.313 1.313c2.955 2.955 5.253 6.788 6.187 10.875.387 2.001.387 2.001 2.322 3.574 2.39 2.457 3.86 4.86 5.526 7.851l1.834 3.283 1.88 3.416 1.893 3.381c5.034 9.063 5.034 9.063 6.717 13.182 2.01 4.728 4.884 8.844 7.683 13.137C742 384 742 384 742 388h2q2.972 5.225 5.927 10.461 1.005 1.78 2.016 3.556 1.454 2.558 2.897 5.124l1.761 3.11c1.186 2.33 1.832 4.232 2.399 6.749a102 102 0 0 0 3 3c2.4 3.468 3 4.652 3 9h2l2 7h2l.813 2.813c.91 3.117.91 3.117 2.687 4.687 2.145 2.145 2.55 4.652 3.5 7.5l1.5 1.5c2.145 2.145 2.55 4.652 3.5 7.5a590 590 0 0 0 3 3 80 80 0 0 1 2.523 4.352l1.407 2.582 1.445 2.691 2.836 5.227 1.419 2.623c4.18 7.703 8.5 15.33 12.808 22.962l1.658 2.948c2.583 4.577 5.195 9.13 7.916 13.627 3.251 5.383 6.31 10.866 9.363 16.363A2667 2667 0 0 0 843 564a3069 3069 0 0 1 16.99 30.054 2307 2307 0 0 0 12.54 22.13c3.705 6.466 7.373 12.95 11.033 19.441a2228 2228 0 0 0 12.125 21.25l1.335 2.311a712 712 0 0 0 6.883 11.63l1.416 2.354q1.329 2.208 2.683 4.402C910.11 681.075 911 682.814 911 687h2a123 123 0 0 1 4.625 7.25l1.273 2.066 1.204 2.012 1.104 1.84C922 702 922 702 922 706h2c1.508 2.047 1.508 2.047 3.125 4.75l1.633 2.672C930 716 930 716 930 720h2l1.294 2.269 7.114 12.464c3.663 6.421 7.329 12.84 11.069 19.216l1.533 2.62q1.395 2.375 2.802 4.743l1.247 2.125 1.072 1.81C959 767 959 767 959.434 769.034c.692 2.402 1.76 3.276 3.566 4.965 1.669 2.497 3.097 5.13 4.563 7.75l1.208 2.094c2.433 4.32 4.062 8.335 5.229 13.156h2c2.432 3.367 3 4.734 3 9a90914 90914 0 0 1-114.582.167c-12.734.013-25.468.037-38.201.064q-19.59.042-39.18.051-12.093.005-24.187.042-9.264.024-18.527.015-3.808.001-7.616.019c-3.454.014-6.908.011-10.362.003l-3.074.026-2.794-.018-2.418.004c-2.58-.467-3.443-1.352-5.059-3.373-.809-1.797-.809-1.797-1.437-3.75-1.01-2.912-2.176-5.475-3.75-8.125C706 788 706 788 706 786h-2l-1.54-3.148c-3.442-6.994-6.925-13.866-11.03-20.5-3.227-5.307-6.094-10.83-9-16.317-2.524-4.724-5.067-8.86-8.43-13.035-.706-1.67-1.41-3.34-2.074-5.027-1.53-3.261-3.644-6.121-5.719-9.055C665 717 665 717 665 715h164c-3.3-7.649-3.3-7.649-7.754-14.102-1.46-2.225-2.406-4.576-3.423-7.03-1.34-3.043-3.025-5.871-4.698-8.743l-2.117-3.664-1.034-1.782A778 778 0 0 1 806 672.75l-1.187-2.078C804 669 804 669 804 667l-3-1c-1.5-2.258-1.5-2.258-3-5.125l-1.582-3.016c-1.105-2.227-2.147-4.442-3.106-6.734-1.233-3.145-1.233-3.145-3-5.937C789 643 789 643 789 641h-2c-2.605-3.737-4.222-7.825-6-12l-2-3v-3h-2l-1.687-3.008a2499 2499 0 0 0-11.5-20.304c-9.246-16.166-9.246-16.166-10.79-20.31-.835-2.367-.835-2.367-2.379-3.68-2.133-2.203-3.454-4.592-4.972-7.257l-1.926-3.36-1.996-3.519-3.89-6.808-1.933-3.387a1933 1933 0 0 0-5.77-10.015l-1.678-2.893c-1.163-1.933-2.428-3.804-3.729-5.646-1.95-3.135-2.886-6.12-3.957-9.63-1.133-3.119-2.883-5.483-4.793-8.183v-2l-3-1c-1.578-2.52-1.578-2.52-3.25-5.812-2.972-5.741-6.127-11.286-9.465-16.825C699 487 699 487 699 485h-2l-1.363-2.832c-6.176-12.67-13.244-24.75-20.422-36.871l-1.352-2.287q-1.252-2.118-2.515-4.229a154 154 0 0 1-6.414-11.976c-.947-1.83-2.014-3.486-3.184-5.18C660 419 660 419 660 417h-2l-1.54-3.148c-3.489-7.088-6.989-14.063-11.233-20.739C644 391 644 391 643.125 388.68c-1.504-3.583-3.595-6.646-5.75-9.868C633 372.27 633 372.27 633 370c-2.147 2.005-3.64 3.874-5.008 6.469l-1.05 1.98-1.067 2.051-1.09 2.05c-1.467 2.788-2.787 5.457-3.785 8.45h-2l-.802 2.63c-1.188 3.341-2.623 6.21-4.358 9.3l-1.894 3.388-2.009 3.557-2.04 3.643a3875 3875 0 0 1-8.854 15.709l-1.263 2.234q-1.122 1.981-2.253 3.956c-1.43 2.517-2.608 4.826-3.527 7.583h-3l-.316 2.649c-.719 3.52-1.832 5.87-3.625 8.968l-1.768 3.086-1.854 3.172-1.865 3.242Q577.298 468.066 575 472h-2l-.312 2a70 70 0 0 1-2.063 7.25c-.235.686-.47 1.372-.71 2.078C569 485 569 485 566 486c-1.206 2.024-1.206 2.024-2.125 4.438l-1.008 2.433L562 495l-1 2h-2l-.937 3.375C557 504 557 504 556 506h-2l-.25 2.535c-.889 4.107-2.641 7.326-4.75 10.902l-1.208 2.1a630 630 0 0 1-9.608 16.062c-3.078 5.032-5.511 10.056-8.184 15.401H427c9.415-17.653 9.415-17.653 13.188-24.5l1.383-2.515c4.09-7.414 8.27-14.776 12.453-22.138 3.897-6.88 7.676-13.817 11.414-20.784 5.02-9.352 10.287-18.536 15.674-27.68 3.164-5.384 6.247-10.786 9.138-16.32 3.168-6.059 6.562-11.952 10.075-17.817 2.807-4.701 5.46-9.473 8.068-14.287 2.877-5.297 5.806-10.564 8.732-15.834l.986-1.777q7.11-12.803 14.404-25.5c3.84-6.692 7.605-13.422 11.36-20.16a1216 1216 0 0 1 14.188-24.75c5.256-8.94 10.268-17.986 15.17-27.123 4.992-9.288 10.195-18.446 15.476-27.572a627 627 0 0 0 3.525-6.216l1.891-3.34 1.57-2.8L597 250h2l.262-2.059c.929-3.701 2.648-6.734 4.55-10.004l1.196-2.087c5.2-9.028 10.58-17.949 15.992-26.85l1.478-2.447a1314 1314 0 0 1 4.147-6.803l1.254-2.078c.985-1.593 2.046-3.138 3.121-4.672"/><path fill="#28b5fd" d="M631 193h2l.813 2.813c.898 3.09.898 3.09 2.562 4.554 2.09 2.1 3.346 4.37 4.813 6.946l1.853 3.233L645 214l2.01 3.52q1.524 2.665 3.045 5.333a967 967 0 0 0 6.343 10.952l1.536 2.617q1.408 2.398 2.828 4.789l1.261 2.156 1.092 1.847C664 247 664 247 664.436 249.04c.693 2.407 1.762 3.253 3.564 4.96 2.02 3.059 3.802 6.258 5.625 9.438l1.523 2.603 1.454 2.518 1.322 2.29c1.03 2.06 1.534 3.927 2.076 6.151l1.438 1.313c2.34 2.528 2.755 5.398 3.562 8.687h2c2 3 2 3 2 7h2c1.508 2.047 1.508 2.047 3.125 4.75l1.633 2.672C697 304 697 304 697 308h2q1.226 2.12 2.438 4.25l1.37 2.39c1.088 2.155 1.641 4.03 2.192 6.36l1.313 1.313c2.955 2.955 5.253 6.788 6.187 10.875.387 2.001.387 2.001 2.322 3.574 2.39 2.457 3.86 4.86 5.526 7.851l1.834 3.283 1.88 3.416 1.893 3.381c2.97 5.346 5.8 10.617 8.045 16.307l1.188 2.938L736 376q-2.903 1.818-5.812 3.625l-3.27 2.04C722.045 384.621 717.02 387.3 712 390l-3.06 1.646q-6.534 3.51-13.073 7.013a783 783 0 0 0-20.833 11.628c-3.414 1.931-6.723 3.438-10.471 4.588L661 416l-1 3v-2h-2l-1.54-3.148c-3.489-7.088-6.989-14.063-11.233-20.739C644 391 644 391 643.125 388.68c-1.504-3.583-3.595-6.646-5.75-9.868C633 372.27 633 372.27 633 370c-2.147 2.005-3.64 3.874-5.008 6.469l-1.05 1.98-1.067 2.051-1.09 2.05c-1.467 2.788-2.787 5.457-3.785 8.45h-2l-.802 2.63c-1.188 3.341-2.623 6.21-4.358 9.3l-1.894 3.388-2.009 3.557-2.04 3.643a3875 3875 0 0 1-8.854 15.709l-1.263 2.234q-1.122 1.981-2.253 3.956c-1.43 2.517-2.608 4.826-3.527 7.583h-3l-.316 2.649c-.719 3.52-1.832 5.87-3.625 8.968l-1.768 3.086-1.854 3.172-1.865 3.242Q577.298 468.066 575 472h-2l-.312 2a70 70 0 0 1-2.063 7.25c-.235.686-.47 1.372-.71 2.078C569 485 569 485 566 486c-1.206 2.024-1.206 2.024-2.125 4.438l-1.008 2.433L562 495l-1 2h-2l-.937 3.375C557 504 557 504 556 506h-2l-.25 2.535c-.889 4.107-2.641 7.326-4.75 10.902l-1.208 2.1a630 630 0 0 1-9.608 16.062c-3.078 5.032-5.511 10.056-8.184 15.401H427c9.415-17.653 9.415-17.653 13.188-24.5l1.383-2.515c4.09-7.414 8.27-14.776 12.453-22.138 3.897-6.88 7.676-13.817 11.414-20.784 5.02-9.352 10.287-18.536 15.674-27.68 3.164-5.384 6.247-10.786 9.138-16.32 3.168-6.059 6.562-11.952 10.075-17.817 2.807-4.701 5.46-9.473 8.068-14.287 2.877-5.297 5.806-10.564 8.732-15.834l.986-1.777q7.11-12.803 14.404-25.5c3.84-6.692 7.605-13.422 11.36-20.16a1216 1216 0 0 1 14.188-24.75c5.256-8.94 10.268-17.986 15.17-27.123 4.992-9.288 10.195-18.446 15.476-27.572a627 627 0 0 0 3.525-6.216l1.891-3.34 1.57-2.8L597 250h2l.262-2.059c.929-3.701 2.648-6.734 4.55-10.004l1.196-2.087c5.2-9.028 10.58-17.949 15.992-26.85l1.478-2.447a1314 1314 0 0 1 4.147-6.803l1.254-2.078c.985-1.593 2.046-3.138 3.121-4.672"/><path fill="#1a34a2" d="M521 14h3a66 66 0 0 1 4.125 6.25l1.09 1.777c1.779 2.965 3.042 5.608 3.785 8.973a181 181 0 0 0 4 4c1.608 2.383 2.84 4.322 3.5 7.125.35 1.949.35 1.949 1.832 3.18 2.021 2.054 3.361 4.23 4.863 6.691l1.896 3.094 2.034 3.347 2.108 3.448a4683 4683 0 0 1 7.953 13.067c3.472 5.713 6.943 11.426 10.404 17.145l2.058 3.4 1.818 3.005A175 175 0 0 0 579 104c-.375 3.688-.375 3.688-1 7h-2l-.281 1.625c-1.274 4.208-3.848 7.767-6.125 11.5-1.647 2.67-1.647 2.67-2.125 5.063-.601 2.324-1.77 3.147-3.469 4.812-1.205 2.26-1.205 2.26-2.187 4.688l-1.043 2.449L560 143h-2l-.75 1.938c-1.937 4.745-3.957 9.476-6.25 14.062h-2l-.691 1.945c-2.131 4.974-4.913 9.588-7.588 14.285-2.541 4.507-4.767 8.98-6.721 13.77l-1 2h-2c-1.108 2.691-2.1 5.334-2.937 8.125-1.089 2.945-1.915 3.74-4.063 5.875a74 74 0 0 0-2.445 4.09l-1.325 2.377-1.355 2.47-1.379 2.46c-1.968 3.559-3.513 6.655-4.496 10.603-1.5 1.625-1.5 1.625-3 3l-1 2h-2l-1.098-2.044q-2.51-4.667-5.027-9.331l-1.727-3.215c-3.097-5.736-6.296-11.374-9.681-16.945-2.626-4.413-5.039-8.941-7.467-13.465l-1.59-2.952q-3.435-6.373-6.852-12.754c-2.991-5.576-6.012-11.128-9.136-16.63l-1.685-2.995a472 472 0 0 0-3.18-5.551l-1.424-2.536-1.254-2.18c-1.623-4.434-1.385-8.123.34-12.481l1.71-3.097 1.896-3.48 2.05-3.656q1.045-1.9 2.085-3.802c1.997-3.638 4.017-7.263 6.04-10.886q1.385-2.497 2.766-4.996 2.346-4.234 4.71-8.457c3.06-5.488 6.039-11.019 9.024-16.547 4.11-7.606 8.246-15.195 12.46-22.744a2653 2653 0 0 0 8.18-14.78l2.208-4.012q1.658-3.012 3.311-6.025 1.545-2.817 3.095-5.63l1.822-3.319C520 15 520 15 521 14"/><path fill="#2258dc" d="m344 704 1 3 1.856.12c15.356 1.01 30.676 2.268 46 3.672 16.045 1.47 32.029 2.843 48.144 3.208-1.266 3.295-2.67 6.395-4.363 9.492l-1.419 2.6-1.53 2.783-1.602 2.925c-4.378 7.973-8.865 15.883-13.362 23.79-3.839 6.776-7.517 13.62-11.111 20.528a702 702 0 0 1-9.05 16.757l-1.253 2.253A606 606 0 0 1 394 801l-.962 2.584C391 806 391 806 389.098 806.454c-2.613.165-5.184.164-7.802.114l-3.016.002c-3.296-.004-6.59-.043-9.885-.082q-3.425-.014-6.848-.021a2997 2997 0 0 1-18.036-.124c-6.133-.05-12.266-.074-18.4-.099A8443 8443 0 0 1 289 806l1-5h2l.313-2.687c.704-3.396 1.642-5.532 3.687-8.313h2l.348-2.207c.67-2.867 1.633-4.934 3.09-7.48l1.308-2.325C304 776 304 776 306 774a267 267 0 0 0 2.134-4.988c1.551-3.603 3.407-7.047 5.241-10.512l1.307-2.475c5.563-10.459 11.442-20.74 17.318-31.025l3.496-6.129q4.245-7.44 8.504-14.871"/><path fill="#1a63de" d="M666 716q16.129-.141 32.258-.207 7.49-.03 14.979-.095 7.226-.063 14.452-.078 2.76-.01 5.517-.043c2.574-.029 5.147-.033 7.72-.031l2.309-.044c3.503.028 5.387.202 8.185 2.394a47 47 0 0 1 4.139 6.534l1.398 2.625 1.48 2.82c5.685 10.623 11.718 21 17.9 31.34 6.515 10.91 13.003 21.84 19.35 32.847l1.825 3.16c1.367 2.552 2.438 5.085 3.488 7.778q-16.768.07-33.535.104-7.785.014-15.571.047-7.509.032-15.017.039-2.87.005-5.739.021c-2.672.015-5.344.017-8.016.016l-2.415.022c-5.479-.02-5.479-.02-7.707-2.249a398 398 0 0 1-2.137-5.832c-.857-2.152-1.87-4.053-3.05-6.043C706 788 706 788 706 786h-2l-1.54-3.148c-3.442-6.994-6.925-13.866-11.03-20.5-3.227-5.307-6.094-10.83-9-16.317-2.524-4.724-5.067-8.86-8.43-13.035-.733-1.69-1.464-3.38-2.14-5.094-1.321-2.929-3.094-5.538-4.872-8.207C666 718 666 718 666 716"/><path fill="#0f36a1" d="M666 716h82c-.856 4.28-2.044 8.08-3.59 12.125l-1.613 4.289-.858 2.266c-5.093 13.473-9.993 26.994-14.603 40.64-7.144 21.078-7.144 21.078-11.336 27.68-3.187-2.924-5.217-5.816-7.25-9.625l-1.578-2.914C706 788 706 788 706 786h-2l-1.54-3.148c-3.442-6.994-6.925-13.866-11.03-20.5-3.227-5.307-6.094-10.83-9-16.317-2.524-4.724-5.067-8.86-8.43-13.035-.733-1.69-1.464-3.38-2.14-5.094-1.321-2.929-3.094-5.538-4.872-8.207C666 718 666 718 666 716"/><path fill="#1a36a4" d="m387.45 646.66 2.898-.002c3.16.002 6.32.026 9.48.049q3.287.009 6.575.013c5.767.011 11.534.04 17.3.074 5.886.03 11.771.044 17.656.06q17.32.05 34.641.146c-2.584 1.723-4.701 2.764-7.562 3.875l-2.7 1.059L463 653c-6.21 2.459-12.392 4.98-18.555 7.559-1.137.475-2.274.95-3.445 1.441l-2.667 1.12a875 875 0 0 1-17.5 7.114c-14.042 5.535-27.907 11.454-41.765 17.434l-2.119.914-2.077.896A1103 1103 0 0 1 357 697l-2.642 1.136C352 699 352 699 349 699c.484-5.817 2.911-9.977 5.75-14.938l1.46-2.591q1.559-2.768 3.128-5.529a899 899 0 0 0 5.142-9.262l3.458-6.243 1.645-3.009 1.57-2.807 1.374-2.486c4.043-5.86 8.3-5.555 14.923-5.476"/><path fill="#0d58c7" d="M804.078 496.5c2.562 3.333 4.631 6.83 6.672 10.5l1.246 2.156 1.176 2.094 1.065 1.89C815 515 815 515 815 519h-97l-2-6-3-1c-.766-1.812-.766-1.812-1.25-4l-.516-2.187L711 504c5.116-5.116 25.382-3.723 32.737-4.262 14.358-1.055 28.682-2.297 42.998-3.824l3.452-.363 2.981-.323c8.23-.662 8.23-.662 10.91 1.272"/><path fill="#7cc1fc" d="M976 799c1.5 1.25 1.5 1.25 3 3v4H716v-1l260-1z"/><path fill="#5c8bf7" d="m396 793 1 2-6 11H289l1-5 1 3h100l2-6a98 98 0 0 1 3-5"/><path fill="#5678db" d="m91 800 1 2-1 2h102v2H89c1-5 1-5 2-6"/><path fill="#2d64d8" d="m713 801 3.809.96c5.41 1.203 10.728 1.48 16.254 1.665l2.912.117q3.512.14 7.025.258v1h-28z"/><path fill="#59e7fe" d="M606 235c1.02 2.669 1.07 3.8.11 6.543l-1.36 2.644-1.328 2.668C602 249 602 249 599 250c.578-4.062 1.891-6.848 4.063-10.312.547-.884 1.095-1.767 1.66-2.676z"/><path fill="#55e6fe" d="M656 235c2.496 2.276 4.066 4.607 5.688 7.563l1.324 2.378C664 247 664 247 664 249h-2c-1.508-2.047-1.508-2.047-3.125-4.75l-1.633-2.672C656 239 656 239 656 235"/><path fill="#49d8fb" d="M597 429c0 3.552-.994 5.488-2.5 8.688l-1.406 3.011L592 443c-1.196-3.992-.688-6.142 1-10 2.125-2.375 2.125-2.375 4-4"/><path fill="#45dffc" d="M620 211c.688 1.625.688 1.625 1 4-1.437 3.25-1.437 3.25-3 6h-3c1.335-3.594 2.96-6.755 5-10"/><path fill="#51e7fe" d="M638 204c3.285 2.792 5.013 6.232 7 10v2c-3.663-1.221-4.35-2.867-6.23-6.113C638 208 638 208 638 204"/><path fill="#2ea5fa" d="m432 547 1 3 5 1v1l-11 1 2-4h3z"/><path fill="#566fcf" d="M521 14h3l2 5-1.812-.562c-2.352-.659-2.352-.659-5.188.562z"/><path fill="#4be2fd" d="m603 418 1 2c-.996 2.164-.996 2.164-2.437 4.625l-1.434 2.477L599 429l-2-4 1.875-1.812c2.262-2.196 2.262-2.196 4.125-5.188"/><path fill="#44d7fc" d="M530 369h1c.188 2.875.188 2.875 0 6l-3 2-1-3c1.375-2.687 1.375-2.687 3-5"/><path fill="#4dd5fc" d="m583 451 2 1c-1.118 3.868-2.029 6.29-5 9q.463-2.22.938-4.437l.527-2.497C582 452 582 452 583 451"/><path fill="#5276dc" d="m299 417 1 2a136 136 0 0 1-3 7h-2c1.059-3.403 2.009-6.014 4-9"/><path fill="#55dafd" d="m513 399 1 2a136 136 0 0 1-3 7h-2c1.059-3.403 2.009-6.014 4-9"/><path fill="#3adbfc" d="m603 243 1 2c-.75 2.063-.75 2.063-2 4l-3 1c.313-2.375.313-2.375 1-5z"/><path fill="#4ee6fd" d="M628 198c1 2 1 2 .25 4.563C627 205 627 205 624 206c1.125-2.972 2.223-5.334 4-8"/><path fill="#536ac4" d="m473 101 2 3-3 1-1 5h-2c1.059-3.403 2.009-6.014 4-9"/></svg>